<?xml version="1.0" encoding="UTF-8"?>
<svg id="Layer_1" data-name="Layer 1" xmlns="http://www.w3.org/2000/svg" viewBox="0 0 205.03 56.81">
  <defs>
    <style>
      .cls-1 {
        fill: #fff;
      }
    </style>
  </defs>
  <g>
    <path class="cls-1" d="M64.33,20.34h7.42c1.81,0,3.42,.35,4.83,1.05s2.5,1.7,3.27,2.98c.78,1.29,1.16,2.77,1.16,4.45s-.39,3.16-1.16,4.45c-.78,1.29-1.87,2.28-3.27,2.98s-3.01,1.05-4.83,1.05h-7.42V20.34Zm7.27,14.31c1.24,0,2.34-.24,3.29-.72s1.67-1.16,2.18-2.04,.76-1.9,.76-3.07-.25-2.19-.76-3.07-1.24-1.56-2.18-2.04c-.95-.48-2.04-.71-3.29-.71h-4.12v11.64h4.12Z"/>
    <path class="cls-1" d="M95.82,25.59c1.01,.91,1.51,2.29,1.51,4.14v7.59h-2.86v-1.58c-.37,.57-.9,1-1.59,1.3-.69,.3-1.52,.45-2.49,.45s-1.82-.17-2.55-.5-1.29-.79-1.69-1.38c-.4-.59-.59-1.26-.59-2,0-1.16,.43-2.1,1.3-2.8s2.23-1.05,4.09-1.05h3.35v-.19c0-.9-.27-1.6-.81-2.09-.54-.49-1.35-.73-2.41-.73-.73,0-1.44,.11-2.15,.34-.7,.23-1.3,.54-1.78,.95l-1.19-2.21c.68-.52,1.5-.91,2.45-1.19,.95-.27,1.96-.41,3.03-.41,1.91,0,3.37,.46,4.38,1.37Zm-2.77,9.17c.59-.35,1.01-.84,1.25-1.49v-1.5h-3.13c-1.75,0-2.62,.57-2.62,1.72,0,.55,.22,.99,.66,1.31,.44,.32,1.04,.49,1.82,.49s1.43-.17,2.02-.52Z"/>
    <path class="cls-1" d="M111.43,36.61c-.36,.29-.79,.51-1.3,.66-.51,.14-1.05,.22-1.61,.22-1.42,0-2.52-.37-3.3-1.12-.78-.74-1.16-1.83-1.16-3.25v-6.23h-2.13v-2.42h2.13v-2.96h3.03v2.96h3.47v2.42h-3.47v6.16c0,.63,.15,1.11,.46,1.44,.31,.33,.75,.5,1.33,.5,.68,0,1.24-.18,1.7-.53l.85,2.16Z"/>
    <path class="cls-1" d="M125.67,25.59c1.01,.91,1.51,2.29,1.51,4.14v7.59h-2.86v-1.58c-.37,.57-.9,1-1.59,1.3-.69,.3-1.52,.45-2.49,.45s-1.82-.17-2.55-.5-1.29-.79-1.69-1.38c-.4-.59-.59-1.26-.59-2,0-1.16,.43-2.1,1.3-2.8s2.23-1.05,4.09-1.05h3.35v-.19c0-.9-.27-1.6-.81-2.09-.54-.49-1.35-.73-2.41-.73-.73,0-1.44,.11-2.15,.34-.7,.23-1.3,.54-1.78,.95l-1.19-2.21c.68-.52,1.5-.91,2.45-1.19,.95-.27,1.96-.41,3.03-.41,1.91,0,3.37,.46,4.38,1.37Zm-2.77,9.17c.59-.35,1.01-.84,1.25-1.49v-1.5h-3.13c-1.75,0-2.62,.57-2.62,1.72,0,.55,.22,.99,.66,1.31,.44,.32,1.04,.49,1.82,.49s1.43-.17,2.02-.52Z"/>
    <path class="cls-1" d="M149.38,37.32l-.03-11.25-5.58,9.31h-1.41l-5.58-9.17v11.11h-3.01V20.34h2.59l6.74,11.25,6.62-11.25h2.6l.02,16.98h-2.98Z"/>
    <path class="cls-1" d="M171.2,31.81h-10.16c.18,.95,.64,1.71,1.4,2.27,.75,.56,1.69,.84,2.8,.84,1.42,0,2.6-.47,3.52-1.41l1.62,1.87c-.58,.69-1.32,1.22-2.21,1.58-.89,.36-1.89,.53-3.01,.53-1.42,0-2.68-.28-3.76-.85-1.08-.57-1.92-1.35-2.51-2.36-.59-1.01-.88-2.15-.88-3.43s.29-2.4,.86-3.41c.57-1.01,1.37-1.8,2.39-2.36,1.02-.56,2.17-.85,3.44-.85s2.39,.28,3.38,.84c.99,.56,1.77,1.34,2.33,2.35,.56,1.01,.84,2.18,.84,3.5,0,.21-.02,.51-.05,.9Zm-8.96-4.3c-.67,.57-1.08,1.34-1.23,2.29h7.35c-.13-.94-.53-1.7-1.19-2.28-.66-.58-1.49-.87-2.47-.87s-1.79,.29-2.46,.86Z"/>
    <path class="cls-1" d="M181.87,31.76l-2.25,2.13v3.42h-3.03V19.32h3.03v10.86l6.28-5.82h3.64l-5.41,5.43,5.92,7.52h-3.69l-4.49-5.55Z"/>
    <path class="cls-1" d="M203.52,25.59c1.01,.91,1.51,2.29,1.51,4.14v7.59h-2.86v-1.58c-.37,.57-.9,1-1.59,1.3-.69,.3-1.52,.45-2.49,.45s-1.82-.17-2.55-.5-1.29-.79-1.69-1.38c-.4-.59-.59-1.26-.59-2,0-1.16,.43-2.1,1.3-2.8s2.23-1.05,4.09-1.05h3.35v-.19c0-.9-.27-1.6-.81-2.09-.54-.49-1.35-.73-2.41-.73-.73,0-1.44,.11-2.15,.34-.7,.23-1.3,.54-1.78,.95l-1.19-2.21c.68-.52,1.5-.91,2.45-1.19,.95-.27,1.96-.41,3.03-.41,1.91,0,3.37,.46,4.38,1.37Zm-2.77,9.17c.59-.35,1.01-.84,1.25-1.49v-1.5h-3.13c-1.75,0-2.62,.57-2.62,1.72,0,.55,.22,.99,.66,1.31,.44,.32,1.04,.49,1.82,.49s1.43-.17,2.02-.52Z"/>
  </g>
  <g>
    <polygon class="cls-1" points="32.01 7.84 46.85 22.68 31.21 38.32 33.32 40.44 51.08 22.68 34.13 5.72 32.01 7.84"/>
    <polygon class="cls-1" points="34.13 46.85 18.48 31.21 16.37 33.32 34.13 51.08 51.06 34.15 48.94 32.04 34.13 46.85"/>
    <polygon class="cls-1" points="25.6 18.48 23.48 16.37 5.72 34.13 22.68 51.08 24.8 48.97 9.96 34.13 25.6 18.48"/>
    <polygon class="cls-1" points="22.68 9.96 38.32 25.6 40.44 23.48 22.68 5.72 5.72 22.68 7.84 24.8 22.68 9.96"/>
    <path class="cls-1" d="M28.4,35.52l7.12-7.12-7.12-7.12-7.12,7.12,7.12,7.12Zm2.88-7.12l-2.88,2.88-2.88-2.88,2.88-2.88,2.88,2.88Z"/>
    <rect class="cls-1" x="53.19" y="26.91" width="2.99" height="2.99" transform="translate(-4.07 46.99) rotate(-45)"/>
    <rect class="cls-1" x="26.91" y="53.19" width="2.99" height="2.99" transform="translate(-30.35 36.1) rotate(-45)"/>
    <rect class="cls-1" x="26.91" y=".62" width="2.99" height="2.99" transform="translate(6.82 20.7) rotate(-45)"/>
    <rect class="cls-1" x=".62" y="26.91" width="2.99" height="2.99" transform="translate(-19.46 9.82) rotate(-45)"/>
  </g>
</svg>